<svg xmlns="http://www.w3.org/2000/svg" width="24" height="24" viewBox="0 0 24 24"><rect width="100%" height="100%" fill="#833ab4"/><path fill="#ffffff" d="M7.905 9.205h1.49v6.16h-1.49zm1.69-1.79q0 .19-.08.36t-.21.29q-.12.13-.3.21-.17.07-.37.07-.19 0-.36-.07-.17-.08-.3-.21-.13-.12-.2-.29-.08-.17-.08-.36 0-.2.08-.37.07-.18.2-.3.13-.13.3-.2.17-.08.36-.08.2 0 .37.08.18.07.3.2.13.12.21.3.08.17.08.37m3.56 4.72q.27 0 .48-.07.2-.08.34-.21.13-.13.2-.32.07-.18.07-.41 0-.45-.27-.72-.28-.27-.82-.27-.55 0-.82.27t-.27.72q0 .22.06.41.07.18.21.32.13.13.34.21.21.07.48.07m1.67 3.51q0-.18-.11-.3-.1-.11-.29-.18-.19-.06-.44-.09-.24-.03-.52-.04-.28-.02-.58-.03t-.58-.05q-.24.14-.4.33-.15.18-.15.43 0 .16.08.3t.26.24q.18.11.46.16.28.06.69.06t.71-.06q.3-.07.5-.18.19-.11.28-.26t.09-.33m-.29-6.23h1.77v.56q0 .26-.32.32l-.55.1q.12.32.12.7 0 .45-.18.82t-.51.63q-.32.26-.76.4t-.95.14q-.18 0-.35-.02t-.33-.05q-.29.18-.29.39 0 .19.17.28.17.08.46.12.28.04.64.04.36.01.74.04.37.03.73.11.36.07.65.24.28.16.45.44t.17.71q0 .41-.2.8-.2.38-.58.68t-.94.48q-.55.19-1.26.19-.7 0-1.21-.14-.52-.13-.86-.36-.34-.22-.51-.52-.17-.29-.17-.61 0-.43.26-.72t.72-.47q-.25-.12-.39-.33-.15-.21-.15-.56 0-.13.05-.28.06-.15.15-.29.1-.15.25-.28.15-.12.36-.23-.47-.25-.74-.67-.26-.42-.26-.98 0-.46.18-.83t.51-.63.77-.4q.45-.13.98-.13.39 0 .74.08t.64.23"/></svg>