<svg xmlns="http://www.w3.org/2000/svg" width="24" height="24" viewBox="0 0 24 24"><rect width="100%" height="100%" fill="#0077b5"/><path fill="#ffffff" d="M7.915 10.29h1.49v6.16h-1.49zm1.69-1.79q0 .19-.07.36-.08.17-.21.29-.13.13-.3.21-.18.07-.38.07-.19 0-.36-.07-.17-.08-.3-.21-.12-.12-.2-.29-.07-.17-.07-.36 0-.2.07-.37.08-.18.2-.3.13-.13.3-.2.17-.08.36-.08.2 0 .38.08.17.07.3.2.13.12.21.3.07.17.07.37m2.6 2.06.1.49q.18-.19.39-.35.21-.15.44-.27.23-.11.49-.17.27-.06.58-.06.5 0 .89.17t.66.48q.26.31.39.74.14.43.14.94v3.92h-1.49v-3.92q0-.56-.25-.87-.26-.31-.79-.31-.38 0-.72.17-.34.18-.64.48v4.45h-1.48v-6.16h.91q.29 0 .38.27"/></svg>