<svg width="48" height="48" viewBox="0 0 48 48" fill="none" xmlns="http://www.w3.org/2000/svg">
    <path d="M24 3C12.4833 3 3 12.4833 3 24C3 35.5167 12.4833 45 24 45C35.5167 45 45 35.5167 45 24C45 12.4833 35.5167 3 24 3ZM24 5C33.6825 5 41.597 12.062 42.697 21H40C40 14.475 35.5 9.5 29 9.5V13.5C29 14.0523 28.5523 14.5 28 14.5C27.4477 14.5 27 14.0523 27 13.5V9.5H29V13.5L34 18V21H38L40 22.5V31.5L38 33H34L33 34.5V39.5L28 41V43.5H27V41L22 39.5V34.5H18L16.5 33V22.5L18 21H22V18L27 13.5V9.5H22.5V13.5C22.5 14.0523 22.0523 14.5 21.5 14.5C20.9477 14.5 20.5 14.0523 20.5 13.5V9.5H22.5V5Z" fill="black"/>
</svg>
