<svg width="16" height="16" viewBox="0 0 16 16" fill="none" xmlns="http://www.w3.org/2000/svg">
    <path d="M8 0.5C4.02167 0.5 0.5 4.02167 0.5 8C0.5 11.9783 4.02167 15.5 8 15.5C11.9783 15.5 15.5 11.9783 15.5 8C15.5 4.02167 11.9783 0.5 8 0.5ZM8 1.5C11.4137 1.5 14.2882 3.90382 14.8577 7H14C14 4.14917 11.5367 1.95473 8.5 2V3.5C8.5 3.77614 8.27614 4 8 4C7.72386 4 7.5 3.77614 7.5 3.5V2H8.5V3.5L10.5 5V6H12L13 6.5V9.5L12 10H10.5V11.5L8.5 13V14.5H7.5V13L5.5 11.5V10H4L3 9.5V6.5L4 6H5.5V5L7.5 3.5V2H7V3.5C7 3.77614 6.77614 4 6.5 4C6.22386 4 6 3.77614 6 3.5V2L8 0.5Z" fill="black"/>
</svg>
