<svg width="128" height="128" viewBox="0 0 128 128" fill="none" xmlns="http://www.w3.org/2000/svg">
    <path d="M64 8C32.193 8 8 32.193 8 64C8 95.807 32.193 120 64 120C95.807 120 120 95.807 120 64C120 32.193 95.807 8 64 8ZM64 12C91.1378 12 112.564 33.1592 116.636 59H112C112 40.5284 96.5367 24.8872 75.5 25V33.5C75.5 34.0523 75.0523 34.5 74.5 34.5C73.9477 34.5 73.5 34.0523 73.5 33.5V25H75.5V33.5L85.5 42.5V51H93L98 55V73L93 77H85.5V85.5L75.5 94V102.5H73.5V94L63.5 85.5V77H56L51 73V55L56 51H63.5V42.5L73.5 33.5V25H71.5V33.5C71.5 34.0523 71.0523 34.5 70.5 34.5C69.9477 34.5 69.5 34.0523 69.5 33.5V25H64Z" fill="black"/>
</svg>
